<svg width="15" height="15" viewBox="0 0 15 15" fill="none" xmlns="http://www.w3.org/2000/svg">
<path d="M7.35582 7.37213L7.71191 7.72313C8.56437 8.5634 9.64034 9.17692 10.0403 9.39051C10.1352 9.4412 10.2504 9.42133 10.3259 9.34469L11.2524 8.40475C11.4463 8.20809 11.7629 8.2058 11.9595 8.39966L13.74 10.1546C13.9367 10.3485 13.9389 10.6651 13.7451 10.8617L12.3411 12.2861C11.6374 12.7626 9.3754 12.8732 5.95692 9.50359L5.60083 9.15259" stroke="#171C1F" stroke-width="0.75" stroke-linejoin="round"/>
<path d="M7.35582 7.37213C6.50335 6.53186 5.8744 5.46484 5.65507 5.06802C5.60301 4.97384 5.62122 4.85837 5.69676 4.78173L6.62326 3.84178C6.81711 3.64512 6.81483 3.32855 6.61817 3.1347L4.83771 1.37971C4.64105 1.18586 4.32447 1.18814 4.13062 1.3848L2.72663 2.80917C2.26033 3.51965 2.18236 5.78301 5.60083 9.15259" stroke="#171C1F" stroke-width="0.75" stroke-linejoin="round"/>
</svg>
